<?xml version="1.0" encoding="UTF-8" standalone="no"?>
<!-- Created with Inkscape (http://www.inkscape.org/) -->
<svg
   xmlns:dc="http://purl.org/dc/elements/1.1/"
   xmlns:cc="http://creativecommons.org/ns#"
   xmlns:rdf="http://www.w3.org/1999/02/22-rdf-syntax-ns#"
   xmlns:svg="http://www.w3.org/2000/svg"
   xmlns="http://www.w3.org/2000/svg"
   xmlns:sodipodi="http://sodipodi.sourceforge.net/DTD/sodipodi-0.dtd"
   xmlns:inkscape="http://www.inkscape.org/namespaces/inkscape"
   width="744.09448819"
   height="1052.3622047"
   id="svg2"
   sodipodi:version="0.32"
   inkscape:version="0.46"
   sodipodi:docname="kochief.svg"
   inkscape:output_extension="org.inkscape.output.svg.inkscape"
   inkscape:export-filename="/home/gsf/svn/fbo/trunk/kochief/media/001/kochief.png"
   inkscape:export-xdpi="90"
   inkscape:export-ydpi="90">
  <defs
     id="defs4">
    <inkscape:perspective
       sodipodi:type="inkscape:persp3d"
       inkscape:vp_x="0 : 526.18109 : 1"
       inkscape:vp_y="0 : 1000 : 0"
       inkscape:vp_z="744.09448 : 526.18109 : 1"
       inkscape:persp3d-origin="372.04724 : 350.78739 : 1"
       id="perspective10" />
  </defs>
  <sodipodi:namedview
     id="base"
     pagecolor="#ffffff"
     bordercolor="#666666"
     borderopacity="1.0"
     gridtolerance="10000"
     guidetolerance="10"
     objecttolerance="10"
     inkscape:pageopacity="0.0"
     inkscape:pageshadow="2"
     inkscape:zoom="3.959798"
     inkscape:cx="238.43935"
     inkscape:cy="851.06648"
     inkscape:document-units="px"
     inkscape:current-layer="layer1"
     showgrid="false"
     inkscape:window-width="1280"
     inkscape:window-height="961"
     inkscape:window-x="0"
     inkscape:window-y="0" />
  <metadata
     id="metadata7">
    <rdf:RDF>
      <cc:Work
         rdf:about="">
        <dc:format>image/svg+xml</dc:format>
        <dc:type
           rdf:resource="http://purl.org/dc/dcmitype/StillImage" />
      </cc:Work>
    </rdf:RDF>
  </metadata>
  <g
     inkscape:label="Layer 1"
     inkscape:groupmode="layer"
     id="layer1">
    <path
       style="font-size:64px;font-style:normal;font-variant:normal;font-weight:normal;font-stretch:normal;text-align:start;line-height:100%;writing-mode:lr-tb;text-anchor:start;fill:#de7b22;fill-opacity:1;stroke:#9a6d2b;stroke-width:1px;stroke-linecap:round;stroke-linejoin:round;stroke-opacity:1;font-family:FreeSerif;-inkscape-font-specification:FreeSerif"
       d="M 121.40075,131.31166 L 121.40075,130.09566 L 138.16875,130.09566 L 138.16875,131.31166 C 135.95004,131.48237 134.28604,131.84504 133.17675,132.39966 C 132.11005,132.9117 130.53138,134.21303 128.44075,136.30366 L 116.28075,148.33566 L 131.19275,164.33566 C 134.09404,167.45033 136.07804,169.37033 137.14475,170.09566 C 138.21137,170.821 139.57671,171.205 141.24075,171.24766 L 141.24075,172.46366 L 121.72075,172.46366 L 121.72075,171.24766 C 122.23272,171.205 122.83006,171.18366 123.51275,171.18366 C 125.30472,171.09833 126.20072,170.629 126.20075,169.77566 C 126.20072,169.00767 125.41139,167.59967 123.83275,165.55166 C 122.29672,163.50367 120.31272,161.28501 117.88075,158.89566 L 111.09675,152.17566 L 109.43275,153.51966 L 109.43275,165.48766 C 109.43274,167.83433 109.77407,169.349 110.45675,170.03166 C 111.1394,170.67166 112.71807,171.077 115.19275,171.24766 L 115.19275,172.46366 L 97.14475,172.46366 L 97.14475,171.24766 C 99.662079,171.077 101.24074,170.629 101.88075,169.90366 C 102.56341,169.13567 102.90474,167.429 102.90475,164.78366 L 102.90475,137.07166 C 102.90474,134.81037 102.56341,133.33837 101.88075,132.65566 C 101.19808,131.93037 99.619412,131.48237 97.14475,131.31166 L 97.14475,130.09566 L 115.32075,130.09566 L 115.32075,131.31166 C 112.71807,131.48237 111.0754,131.90904 110.39275,132.59166 C 109.75274,133.2317 109.43274,134.72503 109.43275,137.07166 L 109.43275,150.19166 L 120.76075,139.88766 C 124.08872,136.8157 125.75272,134.61837 125.75275,133.29566 C 125.75272,132.6557 125.53939,132.2077 125.11275,131.95166 C 124.72872,131.65304 124.04605,131.46104 123.06475,131.37566 C 122.46739,131.3757 121.91272,131.35437 121.40075,131.31166 M 155.21875,143.02366 C 159.31473,143.02369 162.68539,144.38902 165.33075,147.11966 C 167.97605,149.85035 169.29872,153.30635 169.29875,157.48766 C 169.29872,161.92501 167.93339,165.637 165.20275,168.62366 C 162.47206,171.61033 159.1014,173.10366 155.09075,173.10366 C 151.08007,173.10366 147.73074,171.67433 145.04275,168.81566 C 142.39741,165.91434 141.07475,162.30901 141.07475,157.99966 C 141.07475,153.60501 142.37608,150.02102 144.97875,147.24766 C 147.62407,144.43169 151.0374,143.02369 155.21875,143.02366 M 146.83475,154.86366 C 146.83474,159.42901 147.66674,163.31167 149.33075,166.51166 C 150.99474,169.71167 153.17074,171.31166 155.85875,171.31166 C 158.24806,171.31166 160.1254,170.28766 161.49075,168.23966 C 162.85606,166.19167 163.53873,163.35434 163.53875,159.72766 C 163.53873,155.33301 162.68539,151.74902 160.97875,148.97566 C 159.27206,146.20236 157.07473,144.81569 154.38675,144.81566 C 152.1254,144.81569 150.29074,145.73302 148.88275,147.56766 C 147.51741,149.40235 146.83474,151.83435 146.83475,154.86366 M 172.81875,158.83166 C 172.81875,154.09568 174.20541,150.27702 176.97875,147.37566 C 179.79474,144.47436 183.08007,143.02369 186.83475,143.02366 C 189.52273,143.02369 191.82673,143.68502 193.74675,145.00766 C 195.70939,146.28769 196.69072,147.82369 196.69075,149.61566 C 196.69072,150.34102 196.39206,150.98102 195.79475,151.53566 C 195.19739,152.04768 194.47206,152.30368 193.61875,152.30366 C 192.16806,152.30368 191.1654,151.32235 190.61075,149.35966 L 190.22675,147.95166 C 189.8854,146.75702 189.45873,145.94636 188.94675,145.51966 C 188.43473,145.09302 187.60273,144.87969 186.45075,144.87966 C 183.84807,144.87969 181.73607,145.92502 180.11475,148.01566 C 178.53608,150.06369 177.74674,152.73035 177.74675,156.01566 C 177.74674,159.68501 178.66408,162.69301 180.49875,165.03966 C 182.37607,167.34367 184.7654,168.49567 187.66675,168.49566 C 189.5014,168.49567 191.08006,168.04767 192.40275,167.15166 C 193.72539,166.25567 195.15473,164.69834 196.69075,162.47966 L 197.58675,163.05566 C 197.16006,163.909 196.77606,164.613 196.43475,165.16766 C 196.13606,165.72234 195.56006,166.55434 194.70675,167.66366 C 193.89606,168.773 193.08539,169.669 192.27475,170.35166 C 191.46406,171.03433 190.3974,171.67433 189.07475,172.27166 C 187.75207,172.82633 186.38673,173.10366 184.97875,173.10366 C 181.43741,173.10366 178.51474,171.781 176.21075,169.13566 C 173.94941,166.44767 172.81875,163.01301 172.81875,158.83166 M 208.64175,150.51166 L 208.64175,165.93566 C 208.64174,168.15433 208.89774,169.58367 209.40975,170.22366 C 209.92174,170.86366 211.1164,171.29033 212.99375,171.50366 L 212.99375,172.46366 L 199.16975,172.46366 L 199.16975,171.50366 C 201.00441,171.24766 202.13508,170.821 202.56175,170.22366 C 203.03108,169.62633 203.26575,168.197 203.26575,165.93566 L 203.26575,135.79166 C 203.26575,134.42637 203.05241,133.5517 202.62575,133.16766 C 202.24175,132.74104 201.36708,132.5277 200.00175,132.52766 C 199.66042,132.5277 199.40442,132.54904 199.23375,132.59166 L 199.23375,131.56766 L 200.96175,131.05566 C 203.86308,130.24504 206.31641,129.47704 208.32175,128.75166 L 208.64175,128.94366 L 208.64175,148.39966 C 210.13507,146.47969 211.60707,145.11436 213.05775,144.30366 C 214.5084,143.45036 216.1724,143.02369 218.04975,143.02366 C 223.29773,143.02369 225.92172,146.41569 225.92175,153.19966 L 225.92175,165.93566 C 225.92172,168.15433 226.11372,169.56233 226.49775,170.15966 C 226.92439,170.71433 228.01239,171.16233 229.76175,171.50366 L 229.76175,172.46366 L 216.19375,172.46366 L 216.19375,171.50366 C 218.0284,171.333 219.20173,170.90633 219.71375,170.22366 C 220.26839,169.541 220.54573,168.11167 220.54575,165.93566 L 220.54575,153.26366 C 220.54573,148.74102 218.94573,146.47969 215.74575,146.47966 C 214.5084,146.47969 213.33507,146.79969 212.22575,147.43966 C 211.15907,148.03702 209.96441,149.06102 208.64175,150.51166 M 234.56175,147.24766 C 234.04975,147.24769 233.15375,147.33302 231.87375,147.50366 L 231.87375,146.54366 L 241.79375,143.02366 L 242.04975,143.21566 L 242.04975,165.93566 C 242.04974,168.23967 242.30574,169.71167 242.81775,170.35166 C 243.3724,170.949 244.69507,171.333 246.78575,171.50366 L 246.78575,172.46366 L 231.61775,172.46366 L 231.61775,171.50366 C 233.83641,171.37566 235.22308,170.99166 235.77775,170.35166 C 236.37508,169.71167 236.67374,168.23967 236.67375,165.93566 L 236.67375,151.08766 C 236.67374,149.67969 236.50308,148.69835 236.16175,148.14366 C 235.86308,147.54635 235.32975,147.24769 234.56175,147.24766 M 238.78575,128.75166 C 239.72441,128.75171 240.51374,129.07171 241.15375,129.71166 C 241.79374,130.3517 242.11374,131.1197 242.11375,132.01566 C 242.11374,132.95437 241.79374,133.7437 241.15375,134.38366 C 240.51374,134.98103 239.72441,135.2797 238.78575,135.27966 C 237.88974,135.2797 237.12174,134.9597 236.48175,134.31966 C 235.88441,133.6797 235.58575,132.9117 235.58575,132.01566 C 235.58575,131.1197 235.90574,130.3517 236.54575,129.71166 C 237.18574,129.07171 237.93241,128.75171 238.78575,128.75166 M 254.55175,154.73566 C 254.63708,157.42368 254.99974,159.74901 255.63975,161.71166 C 256.27974,163.63167 257.11174,165.08234 258.13575,166.06366 C 259.15974,167.00233 260.18374,167.685 261.20775,168.11166 C 262.2744,168.49567 263.38373,168.68767 264.53575,168.68766 C 266.58373,168.68767 268.3544,168.17567 269.84775,167.15166 C 271.38373,166.12767 272.91973,164.39967 274.45575,161.96766 L 275.47975,162.41566 C 274.15706,165.87167 272.32239,168.517 269.97575,170.35166 C 267.62906,172.18633 264.94107,173.10366 261.91175,173.10366 C 258.24241,173.10366 255.31974,171.82366 253.14375,169.26366 C 251.01041,166.661 249.94375,163.16234 249.94375,158.76766 C 249.94375,154.03168 251.18108,150.23435 253.65575,147.37566 C 256.17308,144.47436 259.39441,143.02369 263.31975,143.02366 C 266.5624,143.02369 269.07973,144.00502 270.87175,145.96766 C 272.66373,147.88769 273.79439,150.81035 274.26375,154.73566 L 254.55175,154.73566 M 254.67975,152.68766 L 267.73575,152.68766 C 267.30906,149.91435 266.64773,147.99435 265.75175,146.92766 C 264.85573,145.86102 263.4264,145.32769 261.46375,145.32766 C 257.62374,145.32769 255.36241,147.78102 254.67975,152.68766 M 298.54275,135.34366 C 297.86006,135.3437 297.26273,135.10903 296.75075,134.63966 C 296.2814,134.1277 295.8974,133.57304 295.59875,132.97566 C 295.34273,132.3357 294.91607,131.78104 294.31875,131.31166 C 293.76407,130.7997 293.0814,130.5437 292.27075,130.54366 C 289.83874,130.5437 288.62274,132.44237 288.62275,136.23966 L 288.62275,143.66366 L 296.49475,143.66366 L 296.49475,145.71166 L 288.68675,145.71166 L 288.68675,165.80766 C 288.68674,168.197 289.02807,169.733 289.71075,170.41566 C 290.3934,171.05566 292.03607,171.41833 294.63875,171.50366 L 294.63875,172.46366 L 277.99875,172.46366 L 277.99875,171.50366 C 280.30275,171.37566 281.75341,170.99166 282.35075,170.35166 C 282.99074,169.669 283.31074,168.15433 283.31075,165.80766 L 283.31075,145.71166 L 278.06275,145.71166 L 278.06275,143.66366 L 283.31075,143.66366 C 283.39608,138.88503 284.29208,135.2157 285.99875,132.65566 C 287.70541,130.05304 290.56407,128.75171 294.57475,128.75166 C 296.49473,128.75171 298.0734,129.13571 299.31075,129.90366 C 300.59073,130.62904 301.23073,131.5677 301.23075,132.71966 C 301.23073,133.44504 300.95339,134.0637 300.39875,134.57566 C 299.88673,135.0877 299.26806,135.3437 298.54275,135.34366"
       id="flowRoot2454" />
  </g>
</svg>
